<?xml version="1.0" standalone="no"?>
<!DOCTYPE svg PUBLIC "-//W3C//DTD SVG 20010904//EN"
 "http://www.w3.org/TR/2001/REC-SVG-20010904/DTD/svg10.dtd">
<svg version="1.0" xmlns="http://www.w3.org/2000/svg"
 width="2048.000000pt" height="2048.000000pt" viewBox="0 0 2048.000000 2048.000000"
 preserveAspectRatio="xMidYMid meet">

<g transform="translate(0.000000,2048.000000) scale(0.100000,-0.100000)"
fill="#000000" stroke="none">
<path d="M2095 18623 c-282 -60 -529 -254 -662 -518 -41 -81 -79 -204 -93
-300 -8 -59 -10 -933 -8 -3265 l3 -3185 23 -85 c52 -188 179 -388 319 -502
124 -100 232 -156 393 -201 l75 -22 3310 -2 c1821 -1 3414 2 3540 7 193 7 241
12 300 30 326 102 581 366 667 690 l23 85 2 3203 c3 3174 3 3203 -17 3301 -46
228 -163 421 -340 564 -93 75 -243 154 -360 189 l-75 23 -3515 2 c-3093 1
-3523 0 -3585 -14z m3315 -3868 l0 -1535 925 0 925 0 0 -340 0 -340 -1312 0
-1313 0 3 1867 c1 1028 2 1871 2 1876 0 4 173 7 385 7 l385 0 0 -1535z"/>
<path d="M11440 18633 c-226 -36 -397 -119 -552 -271 -121 -118 -205 -256
-260 -432 l-23 -75 0 -3270 0 -3270 28 -88 c36 -115 81 -204 154 -302 128
-171 310 -295 522 -354 l96 -26 3460 -3 c2432 -2 3485 0 3543 8 114 15 238 60
362 133 220 129 374 332 447 590 17 59 18 235 18 3317 0 3120 -1 3258 -18
3320 -38 135 -132 305 -228 414 -105 119 -293 234 -469 288 l-75 23 -3490 1
c-1919 1 -3501 0 -3515 -3z m2754 -2668 c293 -56 558 -263 694 -543 l45 -93
38 81 c127 269 350 462 626 542 69 20 100 23 263 22 157 0 197 -3 263 -22 291
-80 527 -291 638 -567 95 -238 94 -545 -3 -812 -140 -388 -437 -747 -1073
-1299 -97 -84 -445 -361 -612 -487 l-139 -104 -104 79 c-598 452 -977 777
-1232 1054 -169 183 -215 240 -307 379 -238 359 -318 706 -242 1047 83 367
371 650 737 722 94 19 314 20 408 1z"/>
<path d="M11383 9925 c-395 -72 -697 -369 -774 -760 -11 -58 -13 -610 -14
-3300 l0 -3230 28 -90 c56 -183 115 -283 241 -413 124 -128 277 -217 459 -265
l82 -22 3515 0 3515 0 85 23 c177 48 344 147 466 274 101 106 166 218 220 378
l29 85 0 3265 0 3265 -22 81 c-96 347 -347 593 -711 697 l-77 22 -3485 2
c-2832 1 -3498 -1 -3557 -12z m4807 -2275 l105 0 4 -325 3 -325 -931 0 -931 0
0 -450 0 -450 728 -2 c400 -2 755 -3 790 -3 l62 0 0 -322 0 -323 -790 0 -790
0 0 -780 0 -780 -380 0 -380 0 0 1880 0 1880 283 3 c155 1 696 1 1202 0 506
-2 967 -3 1025 -3z"/>
<path d="M2052 9910 c-100 -27 -115 -37 -47 -34 31 1 62 7 70 14 8 6 29 11 47
10 18 -1 35 -1 38 0 3 2 22 4 43 5 25 1 37 -2 37 -11 0 -16 9 -17 29 -5 7 5
10 14 7 20 -4 6 -11 9 -16 6 -5 -3 -11 -1 -15 5 -10 16 -113 11 -193 -10z"/>
<path d="M3078 9923 c199 -2 525 -2 725 0 199 1 36 2 -363 2 -399 0 -562 -1
-362 -2z"/>
<path d="M4578 9923 c188 -2 496 -2 685 0 188 1 34 2 -343 2 -377 0 -531 -1
-342 -2z"/>
<path d="M6457 9923 c457 -2 1209 -2 1670 0 461 1 87 2 -832 2 -918 0 -1296
-1 -838 -2z"/>
<path d="M9108 9923 c12 -2 32 -2 45 0 12 2 2 4 -23 4 -25 0 -35 -2 -22 -4z"/>
<path d="M9205 9912 c17 -5 44 -17 60 -28 16 -10 26 -13 22 -7 -6 9 -3 11 7 7
9 -3 13 -10 10 -15 -9 -16 25 -22 43 -8 12 10 15 10 9 2 -5 -9 0 -13 18 -13
14 0 31 -9 41 -22 8 -13 19 -22 23 -21 15 5 42 -9 42 -23 0 -8 5 -14 10 -14 6
0 10 4 10 9 0 12 18 9 60 -13 29 -14 32 -14 15 -1 -42 34 -105 66 -116 59 -7
-4 -9 -3 -6 3 11 18 -153 81 -232 88 -36 4 -40 3 -16 -3z"/>
<path d="M2088 9883 c7 -3 16 -2 19 1 4 3 -2 6 -13 5 -11 0 -14 -3 -6 -6z"/>
<path d="M1900 9855 c-14 -8 -19 -14 -10 -14 8 0 24 6 34 14 25 19 9 19 -24 0z"/>
<path d="M2025 9850 c3 -5 8 -10 11 -10 2 0 4 5 4 10 0 6 -5 10 -11 10 -5 0
-7 -4 -4 -10z"/>
<path d="M1828 9819 c-21 -11 -38 -22 -38 -24 0 -3 18 4 40 15 22 11 40 23 40
25 0 7 0 7 -42 -16z"/>
<path d="M1700 9736 c-64 -47 -165 -158 -216 -237 -48 -73 -61 -110 -16 -43
39 58 54 72 73 67 11 -3 20 3 24 16 3 12 10 19 15 16 10 -6 22 23 14 36 -3 5
1 9 8 9 21 0 78 63 78 85 0 15 3 16 12 7 15 -15 39 3 31 24 -3 8 3 24 12 34
25 28 17 25 -35 -14z m-36 -65 c3 -5 -1 -11 -9 -14 -9 -4 -12 -1 -8 9 6 16 10
17 17 5z"/>
<path d="M9632 9713 c18 -15 49 -40 69 -57 19 -17 8 -5 -25 27 -33 31 -64 57
-69 57 -5 0 6 -12 25 -27z"/>
<path d="M9750 9591 c0 -12 5 -21 12 -21 6 0 8 -3 5 -7 -4 -3 -1 -13 6 -21 9
-13 9 -14 0 -8 -19 11 -16 -2 7 -26 15 -16 17 -24 8 -29 -9 -6 -7 -10 6 -15
14 -5 15 -9 4 -15 -9 -6 -7 -9 9 -9 27 0 32 -7 35 -53 2 -37 12 -48 22 -24 3
6 3 -6 -1 -27 -4 -26 -2 -37 5 -33 5 4 12 0 15 -8 4 -10 1 -12 -10 -8 -14 5
-13 3 1 -19 9 -15 25 -25 34 -23 9 1 20 -3 24 -9 4 -6 10 -7 14 -3 20 20 -87
247 -158 333 -31 37 -38 42 -38 25z"/>
<path d="M1420 9389 c-6 -11 -10 -25 -8 -30 2 -5 8 4 15 21 13 34 9 40 -7 9z"/>
<path d="M1389 9313 c-6 -16 -21 -64 -32 -108 l-22 -80 0 -3235 0 -3235 22
-81 c22 -85 63 -188 70 -180 3 2 -3 18 -12 35 -8 17 -12 31 -8 31 4 0 2 5 -5
12 -14 14 -16 48 -3 48 5 0 9 24 10 53 1 28 1 63 2 77 0 14 -1 34 -3 45 -3 22
-29 46 -40 39 -5 -3 -8 11 -8 30 0 20 -5 36 -10 36 -7 0 -8 77 -3 237 6 213 9
1247 5 2073 -1 168 -2 494 -1 725 0 231 0 755 0 1165 0 410 0 894 1 1075 1
182 -1 463 -5 625 -6 204 -5 290 2 280 8 -12 11 -8 11 17 0 41 17 86 30 78 6
-4 11 13 12 42 0 26 2 60 3 76 1 15 -2 27 -6 27 -5 0 -5 7 -2 17 4 11 3 14 -6
9 -12 -8 -8 22 10 72 5 12 6 22 4 22 -3 0 -10 -12 -16 -27z m-42 -4575 c-2
-13 -4 -3 -4 22 0 25 2 35 4 23 2 -13 2 -33 0 -45z"/>
<path d="M9951 9210 c0 -8 7 -46 14 -85 14 -69 14 -69 9 -14 -5 55 -22 129
-23 99z"/>
<path d="M9985 8320 c0 -311 1 -438 2 -283 2 156 2 410 0 565 -1 156 -2 29 -2
-282z"/>
<path d="M9982 7710 c0 -19 2 -27 5 -17 2 9 2 25 0 35 -3 9 -5 1 -5 -18z"/>
<path d="M5347 7692 c-9 -2 -15 -8 -12 -13 3 -5 -7 -7 -22 -5 -25 2 -29 0 -28
-22 0 -14 5 -27 10 -29 6 -2 9 -19 7 -38 -3 -23 1 -40 12 -50 15 -15 16 -11
16 54 l0 71 390 0 390 0 -2 -1887 c-2 -1502 -6 -1888 -15 -1889 -7 -1 -32 -3
-55 -4 -24 -1 -35 -4 -25 -7 9 -2 17 -8 17 -13 0 -10 33 -6 52 6 7 4 8 3 4 -4
-4 -7 -3 -12 3 -12 5 0 13 9 16 20 4 11 10 18 15 15 5 -3 7 4 5 16 -3 16 0 20
14 16 15 -3 17 0 13 17 -3 11 -7 15 -10 8 -2 -7 -8 -10 -13 -6 -5 3 -9 60 -9
126 0 106 3 124 19 142 17 19 18 28 9 86 -5 36 -6 91 -2 124 4 41 3 61 -6 66
-8 5 -13 137 -17 506 -5 466 0 700 15 690 4 -2 9 67 11 154 1 87 -1 160 -6
163 -4 3 -7 -12 -5 -34 3 -24 0 -39 -7 -39 -15 0 -16 1026 -1 1035 6 4 11 -11
12 -37 1 -24 5 34 8 127 6 197 3 235 -16 235 -21 0 -20 247 0 269 18 20 28 92
16 112 -8 12 -69 14 -383 14 -250 0 -379 4 -388 11 -8 6 -22 9 -32 6z"/>
<path d="M9985 5960 c0 -861 1 -1213 2 -782 2 430 2 1134 0 1565 -1 430 -2 78
-2 -783z"/>
<path d="M5322 7320 c0 -19 2 -27 5 -17 2 9 2 25 0 35 -3 9 -5 1 -5 -18z"/>
<path d="M5311 7243 c-1 -42 -16 -59 -23 -25 -10 50 4 -224 15 -288 9 -55 11
-218 8 -620 -4 -596 -4 -603 -5 -1255 0 -247 0 -496 1 -552 1 -61 -2 -103 -7
-103 -16 0 -12 -59 6 -96 16 -34 16 -102 -1 -153 -6 -18 -5 -22 4 -17 9 6 12
-22 10 -119 -1 -72 3 -131 9 -137 5 -5 25 -8 43 -5 l34 4 -37 1 -38 2 -1 1683
c0 925 -4 1691 -9 1702 -7 15 -9 10 -9 -22z m6 -1685 c-2 -24 -4 -5 -4 42 0
47 2 66 4 43 2 -24 2 -62 0 -85z"/>
<path d="M9985 3815 c0 -280 1 -397 2 -258 2 138 2 368 0 510 -1 142 -2 29 -2
-252z"/>
<path d="M5588 3873 c17 -2 47 -2 65 0 17 2 3 4 -33 4 -36 0 -50 -2 -32 -4z"/>
<path d="M9983 3240 c0 -25 2 -35 4 -22 2 12 2 32 0 45 -2 12 -4 2 -4 -23z"/>
<path d="M9981 2814 c0 -11 3 -14 6 -6 3 7 2 16 -1 19 -3 4 -6 -2 -5 -13z"/>
<path d="M9972 2760 c0 -19 2 -27 5 -17 2 9 2 25 0 35 -3 9 -5 1 -5 -18z"/>
<path d="M9958 2709 c6 -7 11 -22 11 -33 -1 -17 -2 -18 -6 -4 -4 16 -6 16 -25
-2 -19 -18 -20 -24 -10 -57 7 -21 8 -39 3 -41 -5 -2 -7 -21 -5 -42 3 -27 -2
-52 -16 -79 -11 -22 -20 -46 -20 -53 1 -23 47 85 65 154 10 37 15 74 12 82 -4
9 -2 16 3 16 18 0 11 57 -7 65 -15 5 -16 4 -5 -6z"/>
<path d="M1440 2360 c6 -11 13 -20 16 -20 2 0 0 9 -6 20 -6 11 -13 20 -16 20
-2 0 0 -9 6 -20z"/>
<path d="M9843 2310 c-9 -16 -20 -30 -24 -30 -4 0 -9 -10 -12 -21 -4 -15 -11
-20 -21 -16 -18 7 -72 -10 -63 -19 9 -10 -14 -64 -28 -64 -8 0 -16 -9 -20 -19
-6 -20 -35 -37 -35 -21 0 6 -8 2 -18 -7 -11 -10 -17 -21 -16 -24 6 -11 -22
-29 -31 -21 -5 4 -5 1 -1 -6 6 -10 11 -10 21 -2 9 8 15 8 20 0 4 -6 3 -10 -2
-9 -4 1 -21 -3 -36 -9 -16 -7 -33 -9 -39 -6 -6 4 -8 2 -4 -4 3 -5 0 -13 -6
-15 -10 -4 -9 -6 1 -6 11 -1 11 -4 0 -18 -13 -15 -12 -15 10 -4 19 11 21 15
10 23 -11 8 -10 9 4 4 46 -15 240 177 306 302 17 33 5 27 -16 -8z"/>
<path d="M1513 2238 c25 -35 51 -62 57 -60 6 1 9 -2 6 -6 -10 -16 158 -166
194 -174 8 -2 21 -10 28 -18 11 -13 12 -13 10 0 -2 8 -7 18 -11 21 -4 3 -9 16
-10 27 -1 12 -7 22 -15 22 -7 0 -10 5 -7 10 3 6 -5 14 -19 20 -23 8 -30 20
-28 41 1 4 -12 6 -28 5 -17 0 -30 -4 -30 -9 0 -4 -5 -5 -11 -1 -8 4 -7 9 2 15
12 7 12 9 0 9 -8 0 -11 3 -8 6 4 4 13 2 20 -4 10 -9 14 -8 14 1 0 13 -11 17
-50 18 -14 0 -16 3 -8 13 8 9 7 13 -4 14 -8 1 -21 3 -29 4 -8 1 -12 7 -9 15 4
10 9 11 18 3 11 -9 12 -7 8 9 -3 10 -13 21 -24 24 -10 3 -19 13 -19 22 0 14
-6 16 -30 11 -22 -4 -32 -1 -36 9 -4 8 -11 15 -16 15 -5 0 11 -28 35 -62z"/>
<path d="M1820 1966 c0 -2 7 -7 16 -10 8 -3 12 -2 9 4 -6 10 -25 14 -25 6z"/>
<path d="M2025 1910 c4 -7 1 -11 -6 -9 -8 1 -21 1 -29 0 -24 -3 25 -20 104
-36 69 -13 251 -30 211 -18 -11 3 -25 9 -31 14 -6 5 -29 10 -52 12 -22 1 -38
5 -35 10 2 4 -12 7 -32 7 -20 0 -34 3 -31 8 2 4 -12 6 -32 6 -20 -1 -45 2 -56
8 -13 7 -16 7 -11 -2z"/>
<path d="M9198 1908 c-4 -10 -3 -18 3 -18 6 0 7 -5 4 -10 -5 -8 -12 -7 -22 1
-9 8 -17 9 -21 3 -4 -5 -32 -11 -62 -12 -77 -3 -117 -12 -99 -22 16 -9 187 5
234 18 l30 9 -27 6 c-14 4 -28 15 -30 25 -3 16 -4 16 -10 0z"/>
<path d="M7698 1853 c12 -2 32 -2 45 0 12 2 2 4 -23 4 -25 0 -35 -2 -22 -4z"/>
<path d="M2498 1843 c12 -2 32 -2 45 0 12 2 2 4 -23 4 -25 0 -35 -2 -22 -4z"/>
<path d="M3858 1843 c12 -2 32 -2 45 0 12 2 2 4 -23 4 -25 0 -35 -2 -22 -4z"/>
<path d="M4028 1843 c12 -2 30 -2 40 0 9 3 -1 5 -23 4 -22 0 -30 -2 -17 -4z"/>
<path d="M4378 1843 c34 -2 90 -2 125 0 34 2 6 3 -63 3 -69 0 -97 -1 -62 -3z"/>
<path d="M5078 1843 c23 -2 61 -2 85 0 23 2 4 4 -43 4 -47 0 -66 -2 -42 -4z"/>
<path d="M5298 1843 c12 -2 32 -2 45 0 12 2 2 4 -23 4 -25 0 -35 -2 -22 -4z"/>
<path d="M5448 1843 c6 -2 18 -2 25 0 6 3 1 5 -13 5 -14 0 -19 -2 -12 -5z"/>
<path d="M5798 1843 c23 -2 61 -2 85 0 23 2 4 4 -43 4 -47 0 -66 -2 -42 -4z"/>
<path d="M6363 1843 c26 -2 67 -2 90 0 23 2 2 3 -48 3 -49 0 -68 -1 -42 -3z"/>
<path d="M6718 1843 c45 -2 119 -2 165 0 45 1 8 3 -83 3 -91 0 -128 -2 -82 -3z"/>
</g>
</svg>
